# xmcd CD database file
#
# Track frame offsets:
#	150
#	18133
#	45420
#	59254
#	73986
#	92733
#	108417
#	128756
#	163877
#	185290
#	205180
#	235540
#
# Disc length: 3496 seconds
#
# Revision: 1
# Processed by: cddbd v1.4PL0 Copyright (c) Steve Scherf et al.
# Submitted via: CDex 1.50
#
DISCID=9a0da60c
DTITLE=Kenny Neal and Billy Branch - Easy meeting
DYEAR=1998
DGENRE=Blues
TTITLE0=Going down slow
TTITLE1=The son I never knew
TTITLE2=I just keep loving her
TTITLE3=My babe
TTITLE4=Early one morning
TTITLE5=Going to the country
TTITLE6=Don't start me to talking
TTITLE7=Mannish boy
TTITLE8=Billy and Kenny's stomp
TTITLE9=Baby bee
TTITLE10=Northern man blues
TTITLE11=The son I never knew
EXTD=YEAR: 1998
EXTT0=
EXTT1=
EXTT2=
EXTT3=
EXTT4=
EXTT5=
EXTT6=
EXTT7=
EXTT8=
EXTT9=
EXTT10=
EXTT11=
PLAYORDER=
